PathFileType	4	(X/Y/Z)	C:/Users/opensim2020/Desktop/walking_exp_matlab/subject01_walking05_straight_03.trc																																																																																																																															
DataRate	CameraRate	NumFrames	NumMarkers	Units	OrigDataRate	OrigDataStartFrame	OrigNumFrames																																																																																																																											
100	100	4	43	mm	100	2274	223																																																																																																																											
Frame#	Time	LFHD			RFHD			LBHD			RBHD			C7			T10			CLAV			STRN			RBAK			LSHO			LUPA			LELB			LFRM			LWRA			LWRB			LFIN			RSHO			RUPA			RELB			RFRM			RWRA			RWRB			RFIN			LASI			RASI			LPSI			RPSI			LTHI			LKNE			LTIB			LANK			LHEE			LTOE			RTHI			RKNE			RTIB			RANK			RHEE			RTOE			*39			*40			*41			*42		
		X1	Y1	Z1	X2	Y2	Z2	X3	Y3	Z3	X4	Y4	Z4	X5	Y5	Z5	X6	Y6	Z6	X7	Y7	Z7	X8	Y8	Z8	X9	Y9	Z9	X10	Y10	Z10	X11	Y11	Z11	X12	Y12	Z12	X13	Y13	Z13	X14	Y14	Z14	X15	Y15	Z15	X16	Y16	Z16	X17	Y17	Z17	X18	Y18	Z18	X19	Y19	Z19	X20	Y20	Z20	X21	Y21	Z21	X22	Y22	Z22	X23	Y23	Z23	X24	Y24	Z24	X25	Y25	Z25	X26	Y26	Z26	X27	Y27	Z27	X28	Y28	Z28	X29	Y29	Z29	X30	Y30	Z30	X31	Y31	Z31	X32	Y32	Z32	X33	Y33	Z33	X34	Y34	Z34	X35	Y35	Z35	X36	Y36	Z36	X37	Y37	Z37	X38	Y38	Z38	X39	Y39	Z39	X40	Y40	Z40	X41	Y41	Z41	X42	Y42	Z42	X43	Y43	Z43
																																																																																																																																		
196	1.95	582.07111	1668.24731	-1068.57788	598.18695	1677.22375	-954.44611	476.99365	1601.04126	-1056.41272	491.04968	1609.08167	-935.74585	463.56192	1420.56323	-1009.50201	436.78354	1127.45813	-997.28162	608.36761	1355.90137	-1017.29077	654.9151	1201.42749	-1022.58002	417.54623	1225.27893	-926.12561	534.83929	1382.63013	-1174.47192	477.8251	1199.08301	-1249.42944	445.6933	1054.18848	-1242.29382	458.78833	941.15649	-1264.91724	508.53458	810.33881	-1244.96021	453.37894	818.78607	-1268.23035	479.94031	737.03937	-1271.74463	550.91907	1384.40308	-863.47467	525.8941	1185.06104	-752.35693	549.16388	1061.04688	-740.60773	617.68982	960.45496	-709.70435	735.01276	883.27698	-730.26215	696.35254	868.64246	-689.8045	760.41211	813.63635	-689.9447	615.92871	923.9397	-1105.56091	607.97943	920.41479	-886.66766	427.81015	934.48871	-1065.0791	423.22943	941.63013	-920.92993	663.70599	609.93719	-1163.38086	692.10999	483.0589	-1144.55969	686.0025	293.82074	-1158.48218	710.41351	74.20203	-1114.01294	669.45685	42.44996	-1060.82007	857.65771	48.53971	-1111.70203	488.336	598.492	-838.85211	454.69418	439.73248	-862.18878	333.4931	309.35535	-857.65466	227.13029	128.42284	-904.08624	168.48009	116.13943	-954.70679	338.4707	36.03561	-917.24384	578.03302	1707.30566	-976.78577	1973.09314	1023.47577	-3101.85693	2012.56165	1022.05219	-3140.63501	NaN	NaN	NaN
197	1.96	591.98309	1669.13953	-1070.78699	607.67078	1678.10925	-956.49115	486.83875	1601.97717	-1058.91016	500.30533	1610.05371	-938.38586	473.30362	1421.33191	-1012.03973	447.02591	1128.17517	-998.97345	618.13739	1356.96313	-1019.10785	665.27063	1202.68042	-1023.92761	427.11502	1225.98755	-928.77271	544.95831	1382.97095	-1176.64746	489.87262	1198.85583	-1251.58887	458.64661	1053.71021	-1244.55859	472.78174	940.83185	-1266.88989	523.3653	810.45959	-1246.78821	468.233	818.2597	-1270.0437	495.20996	736.87537	-1273.41907	559.96228	1385.37402	-865.45282	533.32355	1185.89343	-754.90674	556.14825	1061.87744	-743.12372	623.3905	960.60706	-711.7973	739.90613	881.90399	-731.37933	700.59015	867.62915	-691.33057	763.9798	811.94586	-690.88599	626.94415	925.15009	-1106.24658	618.30121	921.08032	-887.87036	438.44244	935.97009	-1066.07764	433.7735	942.10236	-921.9798	673.83893	611.34143	-1165.14551	701.85785	483.89395	-1145.229	693.62659	294.03494	-1161.11414	711.94647	74.3315	-1113.96802	670.33008	43.05939	-1061.02478	859.07104	46.46136	-1112.5874	500.84903	598.51312	-839.74164	468.49957	439.73929	-861.63342	343.15082	312.57193	-858.11694	232.17509	134.39285	-904.39636	174.55527	124.46593	-955.5705	339.14182	35.93176	-917.25116	588.00708	1708.453	-978.74463	1973.08887	1023.36224	-3101.93311	2012.54626	1022.05615	-3140.53638	NaN	NaN	NaN
198	1.97	601.80701	1670.12402	-1072.94348	617.04138	1679.21094	-958.54132	496.51334	1603.02795	-1061.69482	509.59399	1611.08191	-940.93439	482.79562	1422.13037	-1014.30273	457.16245	1129.07056	-1000.75232	627.92737	1358.17029	-1020.92712	675.45221	1204.03052	-1025.16956	436.64737	1226.94385	-931.21521	555.13629	1383.57495	-1178.64648	502.0553	1198.90686	-1253.5177	471.91287	1053.6543	-1246.66931	487.04614	940.84064	-1268.86011	538.19788	810.74652	-1247.92749	483.44174	818.26508	-1272.14673	511.06473	737.09546	-1275.32813	569.02332	1386.63086	-867.49323	540.3996	1186.75073	-757.41797	563.03894	1062.9707	-745.51398	628.70465	960.91357	-713.91394	744.03333	880.41248	-732.94257	704.21863	866.64984	-693.12677	766.98737	810.23279	-691.97217	637.75555	926.63336	-1107.07288	628.2392	921.95197	-889.3363	449.10837	937.46063	-1067.00073	444.37869	942.95776	-922.96997	683.70215	612.46008	-1165.83521	710.75232	483.69659	-1145.92297	699.64313	293.55106	-1163.14795	713.2973	74.33369	-1113.79138	670.91132	43.43927	-1061.38147	860.59393	45.14075	-1112.15515	514.05438	598.48456	-840.34674	482.93701	439.34033	-860.64435	354.45251	315.62537	-858.49634	239.08345	140.6937	-904.91656	181.82141	133.45721	-957.43414	340.12756	35.97581	-917.52454	597.43536	1709.40369	-981.21686	1973.17249	1023.41467	-3101.98462	2012.49182	1021.98755	-3140.66211	NaN	NaN	NaN
199	1.98	611.66357	1671.29028	-1075.00427	626.42688	1680.36414	-960.6134	506.323	1604.23462	-1064.31226	518.89709	1612.29626	-943.40167	492.15152	1422.98206	-1016.7807	467.24353	1130.0863	-1002.46002	637.6228	1359.54529	-1022.60333	685.61292	1205.51709	-1026.33838	446.14133	1228.07898	-933.40729	565.40027	1384.38501	-1180.69641	514.21356	1199.30725	-1255.5177	485.3356	1053.79285	-1248.87036	501.66019	941.16907	-1270.88037	553.87372	811.63464	-1249.84338	499.08093	818.54572	-1274.17358	527.44476	737.62073	-1277.17981	577.8916	1387.9458	-869.55432	548.00647	1188.0824	-759.98254	569.73322	1064.2605	-748.06128	633.82312	961.45697	-716.00458	747.85901	879.0354	-734.44635	707.62494	865.89288	-694.92615	769.5968	808.65649	-693.18634	648.25629	928.19751	-1108.12476	638.23553	923.11383	-890.67627	459.59644	939.02673	-1068.01099	454.6138	944.16949	-923.85254	693.47412	613.21899	-1166.72974	718.73932	482.99359	-1146.8988	704.43671	292.82562	-1164.46973	714.39185	74.15909	-1113.65942	671.33911	43.86052	-1061.66272	861.81696	44.24096	-1111.30115	527.93634	598.48822	-840.57587	498.52499	439.08823	-859.37012	366.59052	318.77551	-858.92389	246.79082	147.34741	-905.72278	190.90152	142.96716	-959.63611	341.07672	35.99813	-918.05701	606.89661	1710.64124	-983.33942	1973.2002	1023.32733	-3101.823	2012.60449	1022.10095	-3140.50854	NaN	NaN	NaN
